<svg width="146" height="30" viewBox="0 0 146 30" fill="none" xmlns="http://www.w3.org/2000/svg">
<path opacity="0.7" d="M14.7773 3.41797H16.5352C21.3268 3.41797 24.1849 5.03906 25.1094 8.28125C25.4219 9.34896 25.5781 10.5729 25.5781 11.9531V30H14.7773V3.41797ZM0.363281 11.9531C0.363281 9.07552 1.02083 6.96615 2.33594 5.625C3.78125 4.15365 6.13802 3.41797 9.40625 3.41797H11.1641V30H0.363281V11.9531ZM44.9727 0.0976562H55.3828V30H44.9727V0.0976562ZM30.5 20.2734C30.5 18.8411 30.6888 17.513 31.0664 16.2891C31.444 15.0521 32.0299 13.9714 32.8242 13.0469C34.543 11.0677 37.0039 10.0781 40.207 10.0781H41.7109V30H40.6953C37.4141 30 34.875 29.1016 33.0781 27.3047C31.3594 25.5859 30.5 23.2422 30.5 20.2734ZM74.4844 10.0781H75.9883C79.1914 10.0781 81.6523 11.0677 83.3711 13.0469C84.9206 14.8438 85.6953 17.2266 85.6953 20.1953C85.6953 23.2161 84.8359 25.5859 83.1172 27.3047C81.3203 29.1016 78.7812 30 75.5 30H74.4844V10.0781ZM60.1094 20.2734C60.1094 18.8411 60.2982 17.513 60.6758 16.2891C61.0534 15.0521 61.6393 13.9714 62.4336 13.0469C64.1523 11.0677 66.6133 10.0781 69.8164 10.0781H71.3203V30H70.3047C67.0234 30 64.4844 29.1016 62.6875 27.3047C60.9688 25.5859 60.1094 23.2422 60.1094 20.2734ZM90.4023 0.117188H100.91V29.9609H90.4023V0.117188ZM104.152 10.0781H105.656C108.859 10.0781 111.307 11.0677 113 13.0469C114.549 14.8568 115.324 17.2396 115.324 20.1953C115.324 23.2031 114.471 25.5729 112.766 27.3047C110.995 29.1016 108.462 30 105.168 30H104.152V10.0781ZM134.465 10.0781H135.754C140.676 10.0781 143.677 11.7448 144.758 15.0781C145.109 16.1849 145.285 17.4674 145.285 18.9258V21.0742H134.465V10.0781ZM120.363 20.2734C120.363 18.8411 120.552 17.513 120.93 16.2891C121.307 15.0521 121.893 13.9714 122.688 13.0469C124.406 11.0677 126.867 10.0781 130.07 10.0781H131.574V30H130.559C127.277 30 124.738 29.1016 122.941 27.3047C121.223 25.5859 120.363 23.2422 120.363 20.2734ZM134.465 24.9023H144.23V25.4492C144.23 26.6602 143.794 27.6823 142.922 28.5156C141.854 29.5052 140.337 30 138.371 30H134.465V24.9023Z" fill="white"/>
</svg>
