<svg width="176" height="30" viewBox="0 0 176 30" fill="none" xmlns="http://www.w3.org/2000/svg">
<path opacity="0.7" d="M14.7773 3.41797H16.5352C21.3268 3.41797 24.1849 5.03906 25.1094 8.28125C25.4219 9.34896 25.5781 10.5729 25.5781 11.9531V30H14.7773V3.41797ZM0.363281 11.9531C0.363281 9.07552 1.02083 6.96615 2.33594 5.625C3.78125 4.15365 6.13802 3.41797 9.40625 3.41797H11.1641V30H0.363281V11.9531ZM45.3438 15.625C45.3438 11.9271 47.7331 10.0781 52.5117 10.0781H55.2461V20.0391H45.3438V15.625ZM31.6719 10.0781H42.5312V30H31.6719V10.0781ZM74.6211 10.0781H85.4023V21.2305H84.0156C80.6562 21.2305 78.2474 20.651 76.7891 19.4922C75.3438 18.3333 74.6211 16.3607 74.6211 13.5742V10.0781ZM60.5586 20.2734C60.5586 18.8411 60.7474 17.513 61.125 16.2891C61.5026 15.0521 62.0885 13.9714 62.8828 13.0469C64.5755 11.0677 67.0234 10.0781 70.2266 10.0781H71.7305V30H70.7148C67.4206 30 64.888 29.1016 63.1172 27.3047C61.4115 25.599 60.5586 23.2552 60.5586 20.2734ZM74.6211 24.9023H84.3867V25.4492C84.3867 26.6602 83.9505 27.6823 83.0781 28.5156C82.0104 29.5052 80.4935 30 78.5273 30H74.6211V24.9023ZM104.602 10.0781H115.383V30H114.152C110.767 30 108.332 29.4076 106.848 28.2227C105.35 27.0247 104.602 25.0456 104.602 22.2852V10.0781ZM90.5 20.2734C90.5 18.8411 90.6888 17.513 91.0664 16.2891C91.444 15.0521 92.0299 13.9714 92.8242 13.0469C94.543 11.0677 97.0039 10.0781 100.207 10.0781H101.711V30H100.695C97.4141 30 94.875 29.1016 93.0781 27.3047C91.3594 25.5859 90.5 23.2422 90.5 20.2734ZM134.934 0.0976562H145.344V30H134.934V0.0976562ZM120.461 20.2734C120.461 18.8411 120.65 17.513 121.027 16.2891C121.405 15.0521 121.991 13.9714 122.785 13.0469C124.504 11.0677 126.965 10.0781 130.168 10.0781H131.672V30H130.656C127.375 30 124.836 29.1016 123.039 27.3047C121.32 25.5859 120.461 23.2422 120.461 20.2734ZM164.504 10.0781H165.793C170.715 10.0781 173.716 11.7448 174.797 15.0781C175.148 16.1849 175.324 17.4674 175.324 18.9258V21.0742H164.504V10.0781ZM150.402 20.2734C150.402 18.8411 150.591 17.513 150.969 16.2891C151.346 15.0521 151.932 13.9714 152.727 13.0469C154.445 11.0677 156.906 10.0781 160.109 10.0781H161.613V30H160.598C157.316 30 154.777 29.1016 152.98 27.3047C151.262 25.5859 150.402 23.2422 150.402 20.2734ZM164.504 24.9023H174.27V25.4492C174.27 26.6602 173.833 27.6823 172.961 28.5156C171.893 29.5052 170.376 30 168.41 30H164.504V24.9023Z" fill="white"/>
</svg>
