<svg width="140" height="32" viewBox="0 0 140 32" fill="none" xmlns="http://www.w3.org/2000/svg">
<path opacity="0.7" d="M3.82812 30.4297C3.07292 30.2474 2.48698 29.9479 2.07031 29.5312C1.67969 29.0885 1.38021 28.5807 1.17188 28.0078C0.989583 27.4089 0.859375 26.7578 0.78125 26.0547C0.729167 25.3516 0.664062 24.6224 0.585938 23.8672C0.690104 23.5286 0.820312 23.2422 0.976562 23.0078C1.15885 22.7734 1.23698 22.4479 1.21094 22.0312C1.4974 21.1979 1.75781 20.3906 1.99219 19.6094C2.22656 18.8281 2.38281 18.0208 2.46094 17.1875C2.61719 16.9531 2.77344 16.7969 2.92969 16.7188C3.13802 15.2344 3.16406 13.7109 3.00781 12.1484C2.85156 10.5859 2.59115 9.14062 2.22656 7.8125C2.2526 7.52604 2.29167 7.31771 2.34375 7.1875C2.39583 7.03125 2.39583 6.90104 2.34375 6.79688C2.29167 6.5625 2.36979 6.44531 2.57812 6.44531C2.78646 6.44531 2.99479 6.44531 3.20312 6.44531C3.20312 5.97656 3.11198 5.52083 2.92969 5.07812C2.77344 4.60938 2.61719 4.07552 2.46094 3.47656C2.66927 3.00781 2.8125 2.55208 2.89062 2.10938C2.96875 1.66667 3.11198 1.26302 3.32031 0.898438C4.15365 1.15885 4.97396 1.45833 5.78125 1.79688C6.58854 2.13542 7.38281 2.47396 8.16406 2.8125C8.94531 3.125 9.71354 3.4375 10.4688 3.75C11.224 4.03646 11.9661 4.27083 12.6953 4.45312C13.8151 5.26042 14.9609 6.06771 16.1328 6.875C17.3307 7.65625 18.4115 8.52865 19.375 9.49219C20.3646 10.4297 21.1849 11.5104 21.8359 12.7344C22.487 13.9583 22.8646 15.4036 22.9688 17.0703C22.9167 17.2266 22.8776 17.3568 22.8516 17.4609C22.8255 17.5651 22.7995 17.6693 22.7734 17.7734C22.7474 17.8776 22.7344 17.9948 22.7344 18.125C22.7344 18.2552 22.7344 18.4375 22.7344 18.6719C21.7969 20.3125 20.612 21.6927 19.1797 22.8125C17.7474 23.9323 16.1849 24.9219 14.4922 25.7812C12.7995 26.6406 11.0286 27.4349 9.17969 28.1641C7.35677 28.8672 5.57292 29.6224 3.82812 30.4297ZM7.65625 8.28125C7.42188 8.28125 7.2526 8.33333 7.14844 8.4375C7.46094 9.60938 7.69531 10.7161 7.85156 11.7578C8.00781 12.7995 8.08594 13.8411 8.08594 14.8828C8.11198 15.9245 8.0599 16.9922 7.92969 18.0859C7.79948 19.1797 7.61719 20.3646 7.38281 21.6406C7.72135 21.6146 8.02083 21.5495 8.28125 21.4453C8.54167 21.3411 8.80208 21.224 9.0625 21.0938C9.34896 20.9635 9.63542 20.8464 9.92188 20.7422C10.2344 20.638 10.5859 20.5729 10.9766 20.5469C11.0807 20.3385 11.2109 20.1823 11.3672 20.0781C11.5495 19.9479 11.7057 19.8177 11.8359 19.6875C12.487 19.4271 13.138 19.1536 13.7891 18.8672C14.4401 18.5807 15.0391 18.2552 15.5859 17.8906C16.1328 17.526 16.6276 17.1094 17.0703 16.6406C17.513 16.1719 17.8776 15.612 18.1641 14.9609C17.9557 14.5703 17.6953 14.2448 17.3828 13.9844C17.0964 13.6979 16.7839 13.4245 16.4453 13.1641C16.1328 12.8776 15.8203 12.5911 15.5078 12.3047C15.2214 11.9922 14.987 11.6406 14.8047 11.25C14.388 11.1979 14.0234 11.0938 13.7109 10.9375C13.3984 10.7552 13.099 10.5859 12.8125 10.4297C12.526 10.2474 12.2135 10.0781 11.875 9.92188C11.5625 9.76562 11.1849 9.67448 10.7422 9.64844C10.0651 9.28385 9.45312 9.03646 8.90625 8.90625C8.35938 8.75 7.94271 8.54167 7.65625 8.28125ZM44.9609 8.00781C44.987 8.1901 44.987 8.33333 44.9609 8.4375C44.9609 8.51562 44.9479 8.59375 44.9219 8.67188C44.9219 8.75 44.9219 8.84115 44.9219 8.94531C44.9219 9.02344 44.9479 9.15365 45 9.33594C44.4531 10.2214 43.8151 10.8333 43.0859 11.1719C42.3828 11.4844 41.6146 11.7188 40.7812 11.875C39.9479 12.0052 39.0885 12.1484 38.2031 12.3047C37.3438 12.4609 36.4844 12.7995 35.625 13.3203C35.2865 13.1901 34.974 13.1901 34.6875 13.3203C34.4271 13.4505 34.0365 13.4896 33.5156 13.4375C33.3594 13.5938 33.1641 13.7109 32.9297 13.7891C32.6953 13.8411 32.4609 13.9062 32.2266 13.9844C32.3307 14.2188 32.3698 14.4661 32.3438 14.7266C32.3438 14.9609 32.3828 15.1562 32.4609 15.3125C33.3724 15.3906 34.375 15.3776 35.4688 15.2734C36.5885 15.1693 37.6823 15.1042 38.75 15.0781C38.776 15.2083 38.763 15.2995 38.7109 15.3516C38.6589 15.3776 38.6458 15.4427 38.6719 15.5469C38.8542 15.6771 39.0365 15.8464 39.2188 16.0547C39.401 16.237 39.5833 16.4193 39.7656 16.6016C39.9479 16.7839 40.1302 16.9401 40.3125 17.0703C40.5208 17.1745 40.7552 17.2135 41.0156 17.1875C41.1198 17.3958 41.1849 17.6302 41.2109 17.8906C41.263 18.125 41.237 18.3724 41.1328 18.6328C40.7161 18.9193 40.2995 19.2188 39.8828 19.5312C39.4661 19.8177 39.0234 20.0781 38.5547 20.3125C38.112 20.5469 37.6302 20.7422 37.1094 20.8984C36.6146 21.0286 36.0547 21.0807 35.4297 21.0547C35.2995 21.0547 35.1953 21.0547 35.1172 21.0547C35.0651 21.0547 34.987 21.0156 34.8828 20.9375C34.6745 21.0677 34.375 21.1068 33.9844 21.0547C33.6198 21.0026 33.3333 21.0417 33.125 21.1719C32.8385 21.0417 32.487 20.9896 32.0703 21.0156C31.6797 21.0156 31.3281 20.9635 31.0156 20.8594C30.599 21.4062 30.2214 21.9922 29.8828 22.6172C29.5443 23.2422 29.2448 23.9062 28.9844 24.6094C29.8698 24.7396 30.599 24.7917 31.1719 24.7656C31.7708 24.7396 32.3307 24.7005 32.8516 24.6484C33.3724 24.5703 33.9062 24.5052 34.4531 24.4531C35 24.375 35.6901 24.349 36.5234 24.375C37.0443 24.0885 37.6562 23.9062 38.3594 23.8281C39.0885 23.724 39.7526 23.5677 40.3516 23.3594C40.5599 23.4375 40.7422 23.5807 40.8984 23.7891C41.0547 23.9714 41.1979 24.1536 41.3281 24.3359C41.4844 24.4922 41.6406 24.6354 41.7969 24.7656C41.9531 24.8958 42.1484 24.9479 42.3828 24.9219C42.487 25.026 42.5521 25.1562 42.5781 25.3125C42.6302 25.4427 42.6693 25.5729 42.6953 25.7031C42.7214 25.8333 42.7604 25.9505 42.8125 26.0547C42.8906 26.1328 43.0078 26.1589 43.1641 26.1328C42.7734 26.9922 42.3177 27.6562 41.7969 28.125C41.3021 28.5677 40.7292 28.9062 40.0781 29.1406C39.4271 29.375 38.6979 29.5573 37.8906 29.6875C37.1094 29.8177 36.237 29.974 35.2734 30.1562C35.0391 30.2083 34.8438 30.1953 34.6875 30.1172C34.5312 30.0651 34.349 30.0391 34.1406 30.0391C33.5417 30.1693 32.8255 30.2865 31.9922 30.3906C31.1589 30.4948 30.3125 30.5339 29.4531 30.5078C28.5938 30.4818 27.7734 30.3646 26.9922 30.1562C26.2109 29.974 25.5729 29.6354 25.0781 29.1406C24.8698 28.9583 24.7266 28.75 24.6484 28.5156C24.5964 28.2552 24.4271 28.0599 24.1406 27.9297C24.1146 27.5911 24.0625 27.2135 23.9844 26.7969C23.9062 26.3802 23.8281 25.9505 23.75 25.5078C23.6719 25.0391 23.6068 24.5833 23.5547 24.1406C23.5286 23.6979 23.5547 23.2943 23.6328 22.9297C23.7109 22.5391 23.8672 22.1875 24.1016 21.875C24.362 21.5625 24.4531 21.224 24.375 20.8594C24.5052 20.8333 24.5833 20.7682 24.6094 20.6641C24.6354 20.5339 24.7396 20.4818 24.9219 20.5078C25.0781 20.0391 25.2474 19.5964 25.4297 19.1797C25.612 18.763 25.7943 18.3594 25.9766 17.9688C26.1849 17.5781 26.3802 17.1875 26.5625 16.7969C26.7708 16.3802 26.9661 15.9245 27.1484 15.4297C26.7839 15.0911 26.5104 14.7266 26.3281 14.3359C26.1719 13.9193 26.0547 13.5156 25.9766 13.125C25.8984 12.7083 25.8333 12.2917 25.7812 11.875C25.7292 11.4323 25.638 10.9896 25.5078 10.5469C25.7682 10.1562 26.0807 9.84375 26.4453 9.60938C26.8359 9.34896 27.2526 9.14062 27.6953 8.98438C28.138 8.82812 28.6198 8.69792 29.1406 8.59375C29.6615 8.48958 30.2083 8.3724 30.7812 8.24219C31.8229 7.90365 32.7474 7.64323 33.5547 7.46094C34.388 7.27865 35.1953 7.13542 35.9766 7.03125C36.7839 6.90104 37.6172 6.78385 38.4766 6.67969C39.3359 6.57552 40.3125 6.41927 41.4062 6.21094C41.6406 6.44531 41.862 6.5625 42.0703 6.5625C42.1745 6.32812 42.2917 6.26302 42.4219 6.36719C42.5781 6.44531 42.6432 6.36719 42.6172 6.13281C42.8776 6.57552 43.2031 6.95312 43.5938 7.26562C44.0104 7.55208 44.4661 7.79948 44.9609 8.00781ZM44.6484 12.4219C44.8307 11.875 45.1172 11.4062 45.5078 11.0156C45.9245 10.625 46.3672 10.2995 46.8359 10.0391C47.3307 9.7526 47.8385 9.51823 48.3594 9.33594C48.8802 9.15365 49.375 8.9974 49.8438 8.86719C50.8854 8.42448 51.9922 8.00781 53.1641 7.61719C54.362 7.20052 55.5729 6.83594 56.7969 6.52344C58.0469 6.21094 59.3229 6.01562 60.625 5.9375C61.9271 5.83333 63.2943 5.98958 64.7266 6.40625C64.8047 6.66667 64.9219 6.91406 65.0781 7.14844C65.2344 7.38281 65.3906 7.61719 65.5469 7.85156C65.7292 8.08594 65.8854 8.32031 66.0156 8.55469C66.1458 8.76302 66.224 8.98438 66.25 9.21875C66.5104 9.45312 66.7188 9.71354 66.875 10C67.0312 10.2604 67.0573 10.612 66.9531 11.0547C66.6927 11.263 66.4323 11.4583 66.1719 11.6406C65.9375 11.7969 65.6771 11.9401 65.3906 12.0703C64.4271 11.8359 63.4505 11.7578 62.4609 11.8359C61.4714 11.9141 60.5859 11.9792 59.8047 12.0312C59.5703 11.7969 59.2839 11.6797 58.9453 11.6797C58.6328 11.6797 58.2943 11.7318 57.9297 11.8359C57.5911 11.9401 57.2396 12.0443 56.875 12.1484C56.5365 12.2526 56.2109 12.2786 55.8984 12.2266C55.638 12.4349 55.3125 12.5781 54.9219 12.6562C54.5573 12.7083 54.1536 12.7604 53.7109 12.8125C53.6849 12.9427 53.7109 13.0339 53.7891 13.0859C53.8672 13.112 53.8802 13.1901 53.8281 13.3203C53.9844 13.5026 54.1797 13.6328 54.4141 13.7109C54.6745 13.7891 54.9349 13.8672 55.1953 13.9453C55.4818 14.0234 55.7292 14.1276 55.9375 14.2578C56.1458 14.362 56.2891 14.5443 56.3672 14.8047C56.7578 14.8047 57.0964 14.8958 57.3828 15.0781C57.6693 15.2604 57.9036 15.4818 58.0859 15.7422C58.2682 16.0026 58.3984 16.2891 58.4766 16.6016C58.5807 16.888 58.6328 17.1484 58.6328 17.3828C58.7109 17.5911 58.8021 17.6823 58.9062 17.6562C59.0104 17.6302 59.1276 17.6823 59.2578 17.8125C59.3359 18.151 59.5312 18.5026 59.8438 18.8672C60.1562 19.2057 60.4036 19.5833 60.5859 20C60.638 20.651 60.6771 21.237 60.7031 21.7578C60.7292 22.2526 60.638 22.7604 60.4297 23.2812C60.0391 24.2448 59.4922 25.1042 58.7891 25.8594C58.112 26.6146 57.3307 27.2917 56.4453 27.8906C55.5859 28.4635 54.6615 28.9583 53.6719 29.375C52.6823 29.7917 51.7188 30.1432 50.7812 30.4297C50.6771 30.4036 50.5729 30.4036 50.4688 30.4297C50.3646 30.4557 50.3385 30.3906 50.3906 30.2344C50.1823 30.4167 49.9479 30.5339 49.6875 30.5859C49.4531 30.638 49.1927 30.651 48.9062 30.625C48.6198 30.625 48.3203 30.612 48.0078 30.5859C47.7214 30.5599 47.4479 30.5729 47.1875 30.625C47.0052 30.4427 46.8359 30.2604 46.6797 30.0781C46.5495 29.9219 46.4453 29.7135 46.3672 29.4531C46.237 29.4531 46.1719 29.388 46.1719 29.2578C46.1979 29.1276 46.1589 29.0625 46.0547 29.0625C46.2109 28.8021 46.276 28.6589 46.25 28.6328C46.25 28.5807 46.2109 28.5417 46.1328 28.5156C46.0807 28.4896 46.0286 28.4635 45.9766 28.4375C45.9245 28.3854 45.9115 28.3203 45.9375 28.2422C46.0417 28.0339 46.0807 27.7995 46.0547 27.5391C46.0286 27.2526 46.0026 26.9661 45.9766 26.6797C45.9505 26.3932 45.9635 26.1198 46.0156 25.8594C46.0938 25.599 46.2891 25.3906 46.6016 25.2344C47.487 25.3385 48.3203 25.3125 49.1016 25.1562C49.9089 24.974 50.6641 24.7266 51.3672 24.4141C52.0703 24.1016 52.7344 23.763 53.3594 23.3984C54.0104 23.0339 54.6484 22.7083 55.2734 22.4219C55.3516 22.1875 55.4557 21.9922 55.5859 21.8359C55.7422 21.6797 55.8984 21.5365 56.0547 21.4062C56.2109 21.276 56.3542 21.1328 56.4844 20.9766C56.6146 20.8203 56.7057 20.625 56.7578 20.3906C56.7839 20.2083 56.7318 20.1042 56.6016 20.0781C56.4974 20.026 56.4453 19.9219 56.4453 19.7656L56.0156 19.6484C55.5208 19.362 54.9609 19.1276 54.3359 18.9453C53.7109 18.737 53.1771 18.5156 52.7344 18.2812C52.4479 18.4375 52.1745 18.4766 51.9141 18.3984C51.6797 18.3203 51.3672 18.2422 50.9766 18.1641C50.0911 18.112 49.2318 18.0208 48.3984 17.8906C47.5911 17.7604 46.8099 17.526 46.0547 17.1875C46.0026 17.0573 45.9375 16.9401 45.8594 16.8359C45.7812 16.7318 45.638 16.7057 45.4297 16.7578C45.2734 16.5495 45.1172 16.3542 44.9609 16.1719C44.8047 15.9635 44.6615 15.7422 44.5312 15.5078C44.5833 15.1953 44.6224 14.9349 44.6484 14.7266C44.6745 14.4922 44.5964 14.2708 44.4141 14.0625C44.5182 13.724 44.5964 13.4505 44.6484 13.2422C44.7005 13.0339 44.7005 12.7604 44.6484 12.4219ZM70.8594 27.2656C70.9896 28.0469 70.9375 28.6589 70.7031 29.1016C70.4948 29.5443 70.1823 29.8698 69.7656 30.0781C69.375 30.3125 68.9193 30.4427 68.3984 30.4688C67.8776 30.4948 67.3828 30.4688 66.9141 30.3906C66.6536 30.026 66.4193 29.5703 66.2109 29.0234C66.0026 28.4766 65.8073 27.9167 65.625 27.3438C65.4427 26.7448 65.2734 26.1589 65.1172 25.5859C64.987 25.013 64.8698 24.5052 64.7656 24.0625C64.8958 23.75 64.974 23.3984 65 23.0078C65.0521 22.5911 65.0781 22.1745 65.0781 21.7578C65.1042 21.3411 65.1172 20.9245 65.1172 20.5078C65.1432 20.0651 65.1823 19.6484 65.2344 19.2578C65.4167 18.1641 65.6771 17.1224 66.0156 16.1328C66.3802 15.1432 66.6667 14.1146 66.875 13.0469C66.9271 12.8125 66.901 12.5911 66.7969 12.3828C66.7188 12.1745 66.7057 11.9792 66.7578 11.7969C66.7839 11.6927 66.862 11.6276 66.9922 11.6016C67.1224 11.5495 67.2005 11.4583 67.2266 11.3281C67.3047 11.0417 67.3177 10.8073 67.2656 10.625C67.2396 10.4427 67.2917 10.2214 67.4219 9.96094C67.5521 9.7526 67.7083 9.45312 67.8906 9.0625C68.099 8.64583 68.1771 8.21615 68.125 7.77344C68.3594 7.61719 68.5807 7.4349 68.7891 7.22656C68.9974 7.01823 69.2057 6.83594 69.4141 6.67969C69.6484 6.4974 69.8958 6.34115 70.1562 6.21094C70.4427 6.08073 70.7812 6.01562 71.1719 6.01562C71.3802 6.27604 71.5104 6.5625 71.5625 6.875C71.6406 7.1875 71.7057 7.5 71.7578 7.8125C71.8359 8.125 71.9401 8.42448 72.0703 8.71094C72.2005 8.97135 72.4219 9.17969 72.7344 9.33594C72.7344 9.54427 72.7344 9.80469 72.7344 10.1172C72.7344 10.4297 72.7474 10.7422 72.7734 11.0547C72.7995 11.3411 72.8516 11.6146 72.9297 11.875C73.0339 12.1094 73.1901 12.2656 73.3984 12.3438C72.9297 13.5938 72.487 14.8307 72.0703 16.0547C71.6797 17.2786 71.3542 18.5156 71.0938 19.7656C70.8333 20.9896 70.6641 22.2266 70.5859 23.4766C70.5339 24.7266 70.625 25.9896 70.8594 27.2656ZM83.3984 22.8906C83.1641 22.9427 82.9948 23.0859 82.8906 23.3203C82.7865 23.5286 82.6823 23.75 82.5781 23.9844C82.5 24.2188 82.4089 24.4401 82.3047 24.6484C82.2266 24.8307 82.0964 24.9219 81.9141 24.9219C81.888 25.1302 81.8099 25.3125 81.6797 25.4688C81.5755 25.625 81.4714 25.7943 81.3672 25.9766C81.263 26.1328 81.1849 26.3151 81.1328 26.5234C81.0807 26.7057 81.1068 26.9271 81.2109 27.1875C81.0026 27.3438 80.8724 27.5651 80.8203 27.8516C80.7682 28.138 80.7031 28.4115 80.625 28.6719C80.5729 28.9323 80.4688 29.1536 80.3125 29.3359C80.1562 29.5182 79.8698 29.5964 79.4531 29.5703C79.375 29.6745 79.362 29.7396 79.4141 29.7656C79.4661 29.7917 79.5052 29.8828 79.5312 30.0391C79.2448 29.987 79.0234 30 78.8672 30.0781C78.737 30.1823 78.5677 30.2474 78.3594 30.2734C77.8646 30.1172 77.4479 29.8438 77.1094 29.4531C76.7969 29.0625 76.5104 28.6328 76.25 28.1641C76.0156 27.6693 75.7943 27.1745 75.5859 26.6797C75.4036 26.1849 75.2214 25.7552 75.0391 25.3906C75.1172 25.1042 75.1302 24.8307 75.0781 24.5703C75.026 24.2839 74.9349 24.0495 74.8047 23.8672C76.0807 21.1589 77.474 18.2682 78.9844 15.1953C80.4948 12.1224 81.9271 9.08854 83.2812 6.09375C83.8802 6.32812 84.4661 6.60156 85.0391 6.91406C85.638 7.20052 86.1719 7.53906 86.6406 7.92969C87.1354 8.32031 87.5521 8.77604 87.8906 9.29688C88.2292 9.79167 88.4505 10.3516 88.5547 10.9766C88.5026 11.1328 88.4375 11.1979 88.3594 11.1719C88.3073 11.1198 88.2552 11.1328 88.2031 11.2109C88.3073 11.3411 88.3594 11.4323 88.3594 11.4844C88.3854 11.5365 88.3854 11.5885 88.3594 11.6406C88.3594 11.6927 88.3594 11.7708 88.3594 11.875C88.3594 11.9531 88.3984 12.0703 88.4766 12.2266C88.3724 12.2005 88.2943 12.2135 88.2422 12.2656C88.2161 12.3177 88.138 12.3177 88.0078 12.2656C88.112 12.5521 88.138 12.7865 88.0859 12.9688C88.0599 13.151 88.0078 13.3203 87.9297 13.4766C87.8516 13.6068 87.7865 13.763 87.7344 13.9453C87.6823 14.1016 87.6953 14.3099 87.7734 14.5703C87.6953 14.5703 87.6302 14.5964 87.5781 14.6484C87.5521 14.6745 87.526 14.7135 87.5 14.7656C87.474 14.7917 87.4349 14.8307 87.3828 14.8828C87.3568 14.9089 87.3047 14.9089 87.2266 14.8828C87.3047 15.4557 87.3307 16.0286 87.3047 16.6016C87.2786 17.1745 87.2526 17.7604 87.2266 18.3594C87.2266 18.9323 87.2396 19.5443 87.2656 20.1953C87.2917 20.8203 87.3828 21.4714 87.5391 22.1484C88.4766 21.6016 89.2188 20.8984 89.7656 20.0391C90.3385 19.1797 90.7943 18.2161 91.1328 17.1484C91.4974 16.0807 91.7708 14.9349 91.9531 13.7109C92.1354 12.487 92.3307 11.237 92.5391 9.96094C92.7734 9.72656 92.9557 9.4401 93.0859 9.10156C93.2161 8.76302 93.3333 8.41146 93.4375 8.04688C93.5417 7.65625 93.6458 7.27865 93.75 6.91406C93.8542 6.52344 93.9844 6.17188 94.1406 5.85938C94.5312 5.91146 94.8568 6.04167 95.1172 6.25C95.4036 6.43229 95.6641 6.64062 95.8984 6.875C96.1328 7.08333 96.3802 7.29167 96.6406 7.5C96.901 7.68229 97.2266 7.79948 97.6172 7.85156C97.9297 8.29427 98.2161 8.72396 98.4766 9.14062C98.737 9.55729 98.9062 10 98.9844 10.4688C98.8542 10.6771 98.75 10.9115 98.6719 11.1719C98.6198 11.4323 98.5547 11.6927 98.4766 11.9531C98.3984 12.2135 98.2943 12.4609 98.1641 12.6953C98.0339 12.9036 97.8516 13.0859 97.6172 13.2422C97.5391 13.9193 97.4349 14.5443 97.3047 15.1172C97.2005 15.6641 97.0833 16.2109 96.9531 16.7578C96.849 17.3047 96.7578 17.8776 96.6797 18.4766C96.6016 19.0495 96.5755 19.6875 96.6016 20.3906C96.3932 20.9896 96.1719 21.6276 95.9375 22.3047C95.7031 22.9818 95.5208 23.5938 95.3906 24.1406C94.974 24.4792 94.6484 24.8828 94.4141 25.3516C94.1797 25.8203 93.9323 26.2891 93.6719 26.7578C93.5677 26.862 93.5026 26.888 93.4766 26.8359C93.4505 26.7839 93.3594 26.7448 93.2031 26.7188C93.2292 26.8229 93.2292 26.901 93.2031 26.9531C93.1771 27.0052 93.138 27.0573 93.0859 27.1094C93.0599 27.1354 93.0339 27.1875 93.0078 27.2656C93.0078 27.3438 93.0339 27.4479 93.0859 27.5781C92.7214 27.7344 92.3958 27.9557 92.1094 28.2422C91.8229 28.5286 91.5104 28.7891 91.1719 29.0234C90.8594 29.2578 90.4688 29.4141 90 29.4922C89.5573 29.5703 88.9714 29.4792 88.2422 29.2188C87.1745 28.4375 86.224 27.5391 85.3906 26.5234C84.5833 25.5078 83.9193 24.2969 83.3984 22.8906ZM119.766 8.00781C119.792 8.1901 119.792 8.33333 119.766 8.4375C119.766 8.51562 119.753 8.59375 119.727 8.67188C119.727 8.75 119.727 8.84115 119.727 8.94531C119.727 9.02344 119.753 9.15365 119.805 9.33594C119.258 10.2214 118.62 10.8333 117.891 11.1719C117.188 11.4844 116.419 11.7188 115.586 11.875C114.753 12.0052 113.893 12.1484 113.008 12.3047C112.148 12.4609 111.289 12.7995 110.43 13.3203C110.091 13.1901 109.779 13.1901 109.492 13.3203C109.232 13.4505 108.841 13.4896 108.32 13.4375C108.164 13.5938 107.969 13.7109 107.734 13.7891C107.5 13.8411 107.266 13.9062 107.031 13.9844C107.135 14.2188 107.174 14.4661 107.148 14.7266C107.148 14.9609 107.188 15.1562 107.266 15.3125C108.177 15.3906 109.18 15.3776 110.273 15.2734C111.393 15.1693 112.487 15.1042 113.555 15.0781C113.581 15.2083 113.568 15.2995 113.516 15.3516C113.464 15.3776 113.451 15.4427 113.477 15.5469C113.659 15.6771 113.841 15.8464 114.023 16.0547C114.206 16.237 114.388 16.4193 114.57 16.6016C114.753 16.7839 114.935 16.9401 115.117 17.0703C115.326 17.1745 115.56 17.2135 115.82 17.1875C115.924 17.3958 115.99 17.6302 116.016 17.8906C116.068 18.125 116.042 18.3724 115.938 18.6328C115.521 18.9193 115.104 19.2188 114.688 19.5312C114.271 19.8177 113.828 20.0781 113.359 20.3125C112.917 20.5469 112.435 20.7422 111.914 20.8984C111.419 21.0286 110.859 21.0807 110.234 21.0547C110.104 21.0547 110 21.0547 109.922 21.0547C109.87 21.0547 109.792 21.0156 109.688 20.9375C109.479 21.0677 109.18 21.1068 108.789 21.0547C108.424 21.0026 108.138 21.0417 107.93 21.1719C107.643 21.0417 107.292 20.9896 106.875 21.0156C106.484 21.0156 106.133 20.9635 105.82 20.8594C105.404 21.4062 105.026 21.9922 104.688 22.6172C104.349 23.2422 104.049 23.9062 103.789 24.6094C104.674 24.7396 105.404 24.7917 105.977 24.7656C106.576 24.7396 107.135 24.7005 107.656 24.6484C108.177 24.5703 108.711 24.5052 109.258 24.4531C109.805 24.375 110.495 24.349 111.328 24.375C111.849 24.0885 112.461 23.9062 113.164 23.8281C113.893 23.724 114.557 23.5677 115.156 23.3594C115.365 23.4375 115.547 23.5807 115.703 23.7891C115.859 23.9714 116.003 24.1536 116.133 24.3359C116.289 24.4922 116.445 24.6354 116.602 24.7656C116.758 24.8958 116.953 24.9479 117.188 24.9219C117.292 25.026 117.357 25.1562 117.383 25.3125C117.435 25.4427 117.474 25.5729 117.5 25.7031C117.526 25.8333 117.565 25.9505 117.617 26.0547C117.695 26.1328 117.812 26.1589 117.969 26.1328C117.578 26.9922 117.122 27.6562 116.602 28.125C116.107 28.5677 115.534 28.9062 114.883 29.1406C114.232 29.375 113.503 29.5573 112.695 29.6875C111.914 29.8177 111.042 29.974 110.078 30.1562C109.844 30.2083 109.648 30.1953 109.492 30.1172C109.336 30.0651 109.154 30.0391 108.945 30.0391C108.346 30.1693 107.63 30.2865 106.797 30.3906C105.964 30.4948 105.117 30.5339 104.258 30.5078C103.398 30.4818 102.578 30.3646 101.797 30.1562C101.016 29.974 100.378 29.6354 99.8828 29.1406C99.6745 28.9583 99.5312 28.75 99.4531 28.5156C99.401 28.2552 99.2318 28.0599 98.9453 27.9297C98.9193 27.5911 98.8672 27.2135 98.7891 26.7969C98.7109 26.3802 98.6328 25.9505 98.5547 25.5078C98.4766 25.0391 98.4115 24.5833 98.3594 24.1406C98.3333 23.6979 98.3594 23.2943 98.4375 22.9297C98.5156 22.5391 98.6719 22.1875 98.9062 21.875C99.1667 21.5625 99.2578 21.224 99.1797 20.8594C99.3099 20.8333 99.388 20.7682 99.4141 20.6641C99.4401 20.5339 99.5443 20.4818 99.7266 20.5078C99.8828 20.0391 100.052 19.5964 100.234 19.1797C100.417 18.763 100.599 18.3594 100.781 17.9688C100.99 17.5781 101.185 17.1875 101.367 16.7969C101.576 16.3802 101.771 15.9245 101.953 15.4297C101.589 15.0911 101.315 14.7266 101.133 14.3359C100.977 13.9193 100.859 13.5156 100.781 13.125C100.703 12.7083 100.638 12.2917 100.586 11.875C100.534 11.4323 100.443 10.9896 100.312 10.5469C100.573 10.1562 100.885 9.84375 101.25 9.60938C101.641 9.34896 102.057 9.14062 102.5 8.98438C102.943 8.82812 103.424 8.69792 103.945 8.59375C104.466 8.48958 105.013 8.3724 105.586 8.24219C106.628 7.90365 107.552 7.64323 108.359 7.46094C109.193 7.27865 110 7.13542 110.781 7.03125C111.589 6.90104 112.422 6.78385 113.281 6.67969C114.141 6.57552 115.117 6.41927 116.211 6.21094C116.445 6.44531 116.667 6.5625 116.875 6.5625C116.979 6.32812 117.096 6.26302 117.227 6.36719C117.383 6.44531 117.448 6.36719 117.422 6.13281C117.682 6.57552 118.008 6.95312 118.398 7.26562C118.815 7.55208 119.271 7.79948 119.766 8.00781ZM131.328 19.7656C131.146 19.9219 130.99 20.1172 130.859 20.3516C130.729 20.5599 130.599 20.7812 130.469 21.0156C130.339 21.3021 130.195 21.5755 130.039 21.8359C129.883 22.0964 129.688 22.3307 129.453 22.5391C129.323 22.9297 129.193 23.2422 129.062 23.4766C128.932 23.6849 128.724 23.9323 128.438 24.2188C128.177 25.2604 127.565 26.3932 126.602 27.6172C126.576 27.8516 126.497 28.0859 126.367 28.3203C126.263 28.5286 126.146 28.737 126.016 28.9453C125.964 29.0234 125.911 29.1146 125.859 29.2188C125.807 29.2969 125.768 29.362 125.742 29.4141L125.664 29.8047C125.534 30.013 125.391 30.1953 125.234 30.3516C125.078 30.5078 124.935 30.651 124.805 30.7812C124.753 30.8594 124.661 30.9635 124.531 31.0938L123.945 31.3281C122.044 31.0677 120.885 30.0521 120.469 28.2812L120.508 27.8906C120.56 27.7604 120.599 27.6302 120.625 27.5C120.677 27.3438 120.729 27.1875 120.781 27.0312C120.885 26.6667 121.003 26.3021 121.133 25.9375C121.289 25.5729 121.51 25.2474 121.797 24.9609C121.849 24.7786 121.966 24.4922 122.148 24.1016C122.331 23.6849 122.643 23.0729 123.086 22.2656C123.451 21.6406 123.737 21.1458 123.945 20.7812C124.154 20.4167 124.323 20.1302 124.453 19.9219C124.193 19.5052 123.88 19.1276 123.516 18.7891C123.177 18.138 122.878 17.513 122.617 16.9141C122.383 16.3151 122.201 15.7812 122.07 15.3125C122.044 14.974 122.005 14.6875 121.953 14.4531C121.901 14.2188 121.849 13.9714 121.797 13.7109C121.719 13.4245 121.654 13.138 121.602 12.8516C121.549 12.5651 121.523 12.2656 121.523 11.9531C121.393 11.7708 121.315 11.5885 121.289 11.4062L121.367 11.0156C121.445 10.8333 121.458 10.599 121.406 10.3125C121.354 10 121.289 9.6875 121.211 9.375C121.159 9.11458 121.094 8.82812 121.016 8.51562C120.964 8.20312 120.951 7.89062 120.977 7.57812C121.003 7.26562 121.081 6.97917 121.211 6.71875C121.367 6.43229 121.615 6.1849 121.953 5.97656L122.617 5.9375C122.852 6.06771 123.073 6.19792 123.281 6.32812C123.516 6.43229 123.737 6.54948 123.945 6.67969C124.232 6.8099 124.505 6.9401 124.766 7.07031C125.026 7.20052 125.299 7.36979 125.586 7.57812L125.859 8.125L126.367 8.55469V8.98438C126.393 9.08854 126.406 9.23177 126.406 9.41406C126.406 9.7526 126.458 9.96094 126.562 10.0391L126.719 10.5078C126.719 10.8724 126.758 11.224 126.836 11.5625C126.914 11.875 126.992 12.1745 127.07 12.4609C127.148 12.7474 127.227 13.0469 127.305 13.3594C127.383 13.6719 127.396 14.0104 127.344 14.375C127.5 14.2969 127.63 14.2057 127.734 14.1016C127.786 14.0495 127.839 14.0104 127.891 13.9844C127.943 13.9583 127.995 13.9193 128.047 13.8672L130.352 10.7422L130.273 10.3516L131.094 9.57031C131.302 9.36198 131.497 9.16667 131.68 8.98438C131.888 8.80208 132.057 8.60677 132.188 8.39844L132.617 8.08594C133.451 6.78385 134.635 5.97656 136.172 5.66406L136.719 5.58594L136.875 6.09375C136.979 6.38021 137.188 6.64062 137.5 6.875C137.839 7.10938 138.19 7.33073 138.555 7.53906L138.906 7.77344C139.036 8.03385 139.102 8.22917 139.102 8.35938C139.102 8.48958 139.089 8.60677 139.062 8.71094L139.219 9.10156C139.01 9.72656 138.75 10.1823 138.438 10.4688C138.151 10.7552 137.865 11.0156 137.578 11.25C137.344 11.4583 137.122 11.6536 136.914 11.8359C136.732 11.9922 136.589 12.2005 136.484 12.4609L136.211 12.7734C135.664 13.0859 135.312 13.5026 135.156 14.0234L135.039 14.4922H134.57C134.544 14.4922 134.479 14.5443 134.375 14.6484C134.297 14.7266 134.167 14.9479 133.984 15.3125C133.802 15.5729 133.672 15.7422 133.594 15.8203C133.516 15.8984 133.451 15.9635 133.398 16.0156C133.372 16.1198 133.333 16.224 133.281 16.3281C133.255 16.4062 133.216 16.5104 133.164 16.6406C132.826 16.9792 132.617 17.2396 132.539 17.4219C132.461 17.5781 132.37 17.7604 132.266 17.9688C132.161 18.1771 132.057 18.3854 131.953 18.5938C131.875 18.776 131.732 18.9714 131.523 19.1797L131.328 19.7656Z" fill="white"/>
</svg>
