<svg width="108" height="41" viewBox="0 0 108 41" fill="none" xmlns="http://www.w3.org/2000/svg">
<path opacity="0.7" d="M33.2 24.72C33.2 24.72 33.6267 24.6133 34.48 24.4C35.28 24.4 35.68 24.8 35.68 25.6C35.68 26.1867 35.28 26.6133 34.48 26.88C34 27.04 33.52 27.12 33.04 27.12C32.5867 27.12 32.1467 27.0133 31.72 26.8C31.2933 26.5867 30.96 26.2667 30.72 25.84C30.32 25.1467 30.0267 24.4 29.84 23.6L29.68 22.92C29.2267 23.6933 28.12 24.6 26.36 25.64C24.6267 26.68 22.7733 27.2 20.8 27.2C19.7333 27.2 18.8 26.8 18 26C17.2 25.2 16.8 24.2667 16.8 23.2C16.8 20.6133 17.8667 18.3733 20 16.48C22.1333 14.56 24.2933 13.6 26.48 13.6C27.68 13.6 28.7067 13.8267 29.56 14.28C30.44 14.7067 30.88 15.1467 30.88 15.6C30.88 16.4 30.48 16.8 29.68 16.8C29.52 16.8 29.1333 16.6667 28.52 16.4C27.9067 16.1333 27.2267 16 26.48 16C25.04 16 23.4667 16.7067 21.76 18.12C20.0533 19.5067 19.2 21.2 19.2 23.2C19.2 23.6 19.36 23.9733 19.68 24.32C20.0267 24.64 20.4 24.8 20.8 24.8C22.3733 24.8 23.84 24.3867 25.2 23.56C26.56 22.7067 27.4267 22.0133 27.8 21.48C28.1733 20.92 28.48 20.4133 28.72 19.96C28.96 19.5067 29.1333 19.2133 29.24 19.08C29.3733 18.92 29.64 18.84 30.04 18.84C30.44 18.84 30.7467 18.9867 30.96 19.28C31.1733 19.5733 31.3733 20.04 31.56 20.68C31.7467 21.2933 31.9333 21.9867 32.12 22.76C32.3067 23.5333 32.4667 24.0533 32.6 24.32C32.76 24.5867 32.96 24.72 33.2 24.72ZM0.8 13.6C0.8 10.2667 1.57333 7.42667 3.12 5.08C4.69333 2.70666 6.93333 1.52 9.84 1.52C11.84 1.52 13.56 2.41333 15 4.2C16.4667 5.96 17.2 7.76 17.2 9.6C17.2 12.8533 13.8133 15.24 7.04 16.76C6.64 16.84 6.42667 16.88 6.4 16.88C5.6 16.88 5.2 16.48 5.2 15.68C5.2 15.0933 5.6 14.6933 6.4 14.48C12 13.1733 14.8 11.5467 14.8 9.6C14.8 8.37333 14.3067 7.12 13.32 5.84C12.3333 4.56 11.12 3.92 9.68 3.92C8.26667 3.92 7.04 4.4 6 5.36C4.13333 7.12 3.2 9.86667 3.2 13.6C3.2 15.68 3.34667 18 3.64 20.56C3.93333 23.0933 4.28 24.9467 4.68 26.12C4.76 26.36 4.8 26.5867 4.8 26.8C4.8 27.6 4.4 28 3.6 28C3.17333 28 2.85333 27.8133 2.64 27.44C2.10667 26.3467 1.66667 24.36 1.32 21.48C0.973333 18.6 0.8 15.9733 0.8 13.6ZM50.3984 17.2C50.3984 20.56 50.2384 24.16 49.9184 28C49.6251 31.8667 49.2518 34.8267 48.7984 36.88C48.2918 39.28 47.0918 40.48 45.1984 40.48C41.7318 40.48 39.9984 38.16 39.9984 33.52C39.9984 32.24 40.3451 31 41.0384 29.8C41.7584 28.6 42.5584 28 43.4384 28C44.3451 28 44.7984 28.4 44.7984 29.2C44.7984 29.3867 44.6118 29.6133 44.2384 29.88C43.0118 30.7333 42.3984 31.92 42.3984 33.44C42.3984 34.9867 42.5851 36.1467 42.9584 36.92C43.3584 37.6933 44.1051 38.08 45.1984 38.08C45.8384 38.08 46.2784 37.4667 46.5184 36.24C47.0251 33.8667 47.4384 30.1067 47.7584 24.96C47.8651 23.3333 47.9051 22.3467 47.8784 22C47.3184 22.8 46.9051 23.3067 46.6384 23.52C46.3984 23.7067 46.1451 23.9067 45.8784 24.12C45.6384 24.3067 45.3984 24.4667 45.1584 24.6C44.9451 24.7067 44.6651 24.84 44.3184 25C43.9984 25.1333 43.6651 25.24 43.3184 25.32C42.5184 25.5067 41.6784 25.6 40.7984 25.6C39.3851 25.6 38.3718 24.8 37.7584 23.2C36.9318 21.0933 36.3584 18.4267 36.0384 15.2C36.0118 15.04 35.9984 14.8267 35.9984 14.56C35.9984 13.92 36.3718 13.6 37.1184 13.6C37.8918 13.6 38.3184 14 38.3984 14.8C38.5851 16.56 38.8918 18.4 39.3184 20.32C39.7718 22.24 40.2651 23.2 40.7984 23.2C42.5318 23.2 43.8784 22.76 44.8384 21.88C45.7984 21 46.8518 19.44 47.9984 17.2C48.3184 16.4 48.7184 16 49.1984 16C49.9984 16 50.3984 16.4 50.3984 17.2ZM57.6156 40.48C56.8956 40.48 56.4956 40.08 56.4156 39.28C56.2823 37.8933 55.7756 34.6667 54.8956 29.6C54.0423 24.56 53.6156 21.4933 53.6156 20.4C53.6156 18.3733 54.5623 16.7333 56.4556 15.48C58.349 14.2267 60.469 13.6 62.8156 13.6C64.5756 13.6 66.0156 14.1067 67.1356 15.12C68.2556 16.1333 68.8156 17.4933 68.8156 19.2C68.8156 20.2133 68.5223 21.1467 67.9356 22C67.3756 22.8533 66.6956 23.52 65.8956 24C64.189 25.0667 62.7623 25.6 61.6156 25.6C60.8156 25.6 60.4156 25.2 60.4156 24.4C60.4156 23.68 60.8156 23.2933 61.6156 23.24C62.4423 23.16 63.4423 22.7333 64.6156 21.96C65.8156 21.1867 66.4156 20.28 66.4156 19.24C66.4156 18.1733 66.0956 17.3733 65.4556 16.84C64.8156 16.28 63.8023 16 62.4156 16C61.0556 16 59.6423 16.4 58.1756 17.2C56.7356 18 56.0156 19.0133 56.0156 20.24C56.0156 21.4667 56.5756 25.3333 57.6956 31.84L58.1356 29.2C58.269 28.4 58.669 28 59.3356 28C60.1356 28 60.5356 28.4 60.5356 29.2C60.5356 29.3333 60.5223 29.48 60.4956 29.64L58.9356 39.28C58.909 39.52 58.789 39.7733 58.5756 40.04C58.3623 40.3333 58.0423 40.48 57.6156 40.48ZM89.2344 24.72C89.2344 24.72 89.661 24.6133 90.5144 24.4C91.3144 24.4 91.7144 24.8 91.7144 25.6C91.7144 26.1867 91.3144 26.6133 90.5144 26.88C90.0344 27.04 89.5544 27.12 89.0744 27.12C88.621 27.12 88.181 27.0133 87.7544 26.8C87.3277 26.5867 86.9944 26.2667 86.7544 25.84C86.3544 25.1467 86.061 24.4 85.8744 23.6L85.7144 22.92C85.261 23.6933 84.1544 24.6 82.3944 25.64C80.661 26.68 78.8077 27.2 76.8344 27.2C75.7677 27.2 74.8344 26.8 74.0344 26C73.2344 25.2 72.8344 24.2667 72.8344 23.2C72.8344 20.6133 73.901 18.3733 76.0344 16.48C78.1677 14.56 80.3277 13.6 82.5144 13.6C83.7144 13.6 84.741 13.8267 85.5944 14.28C86.4744 14.7067 86.9144 15.1467 86.9144 15.6C86.9144 16.4 86.5144 16.8 85.7144 16.8C85.5544 16.8 85.1677 16.6667 84.5544 16.4C83.941 16.1333 83.261 16 82.5144 16C81.0744 16 79.501 16.7067 77.7944 18.12C76.0877 19.5067 75.2344 21.2 75.2344 23.2C75.2344 23.6 75.3944 23.9733 75.7144 24.32C76.061 24.64 76.4344 24.8 76.8344 24.8C78.4077 24.8 79.8744 24.3867 81.2344 23.56C82.5944 22.7067 83.461 22.0133 83.8344 21.48C84.2077 20.92 84.5144 20.4133 84.7544 19.96C84.9944 19.5067 85.1677 19.2133 85.2744 19.08C85.4077 18.92 85.6744 18.84 86.0744 18.84C86.4744 18.84 86.781 18.9867 86.9944 19.28C87.2077 19.5733 87.4077 20.04 87.5944 20.68C87.781 21.2933 87.9677 21.9867 88.1544 22.76C88.341 23.5333 88.501 24.0533 88.6344 24.32C88.7944 24.5867 88.9944 24.72 89.2344 24.72ZM103.253 27.6C101.84 27.6 100.746 26.96 99.9731 25.68C99.2265 24.4 98.8531 22.9333 98.8531 21.28C98.8531 20.4267 99.2531 20 100.053 20C100.853 20 101.253 20.48 101.253 21.44C101.253 22.4 101.44 23.2667 101.813 24.04C102.186 24.8133 102.64 25.2 103.173 25.2C103.733 25.2 104.413 25.0667 105.213 24.8C106.013 24.5333 106.453 24.4 106.533 24.4C107.333 24.4 107.733 24.8 107.733 25.6C107.733 26.1867 107.333 26.6133 106.533 26.88C105.093 27.36 104 27.6 103.253 27.6ZM95.2531 1.68L95.2131 2.36C94.8931 5.56 94.6798 7.93333 94.5731 9.48C94.4931 11.0267 94.4531 12.8933 94.4531 15.08C94.4531 17.24 94.5198 18.6533 94.6531 19.32C95.2931 17.9067 96.3865 16.6 97.9331 15.4C99.4798 14.2 101.386 13.6 103.653 13.6C104.453 13.6 104.853 14 104.853 14.8C104.853 15.6 104.453 16 103.653 16C102.56 16 101.546 16.2 100.613 16.6C99.7065 17 98.9865 17.4933 98.4531 18.08C97.4398 19.2 96.7998 20.2 96.5331 21.08C96.4798 21.24 96.3865 21.5867 96.2531 22.12C96.1465 22.6267 96.0665 22.96 96.0131 23.12C95.9865 23.3067 95.8931 23.5467 95.7331 23.84C95.4665 24.3467 95.0398 24.6 94.4531 24.6C93.8931 24.6 93.3465 23.72 92.8131 21.96C92.3065 20.1733 92.0531 18.5867 92.0531 17.2C92.0531 15.8133 92.0531 14.5733 92.0531 13.48C92.0798 12.36 92.0931 11.48 92.0931 10.84C92.1198 10.1733 92.1731 9.36 92.2531 8.4C92.3331 7.44 92.3731 6.81333 92.3731 6.52C92.4265 5.26667 92.5865 3.64 92.8531 1.64C92.9331 0.866666 93.3331 0.479999 94.0531 0.479999C94.8531 0.479999 95.2531 0.879999 95.2531 1.68Z" fill="white"/>
</svg>
